<svg width="19" height="8" viewBox="0 0 19 8" fill="none" xmlns="http://www.w3.org/2000/svg">
<path d="M1 3.43805C0.723858 3.43805 0.5 3.66191 0.5 3.93805C0.5 4.21419 0.723858 4.43805 1 4.43805V3.43805ZM18.8536 4.2916C19.0488 4.09634 19.0488 3.77976 18.8536 3.5845L15.6716 0.402515C15.4763 0.207253 15.1597 0.207253 14.9645 0.402515C14.7692 0.597778 14.7692 0.91436 14.9645 1.10962L17.7929 3.93805L14.9645 6.76648C14.7692 6.96174 14.7692 7.27832 14.9645 7.47358C15.1597 7.66885 15.4763 7.66885 15.6716 7.47358L18.8536 4.2916ZM1 4.43805H18.5V3.43805H1V4.43805Z" fill="white"/>
</svg>
