<svg width="18" height="19" viewBox="0 0 18 19" fill="none" xmlns="http://www.w3.org/2000/svg">
<g id="calendar-solid 1" clip-path="url(#clip0_38_37)">
<path id="Vector" d="M3.85714 2.06305V3.18805H1.92857C0.863839 3.18805 0 3.94391 0 4.87555V6.56305H18V4.87555C18 3.94391 17.1362 3.18805 16.0714 3.18805H14.1429V2.06305C14.1429 1.44078 13.5683 0.938049 12.8571 0.938049C12.146 0.938049 11.5714 1.44078 11.5714 2.06305V3.18805H6.42857V2.06305C6.42857 1.44078 5.85402 0.938049 5.14286 0.938049C4.4317 0.938049 3.85714 1.44078 3.85714 2.06305ZM18 7.68805H0V17.2505C0 18.1822 0.863839 18.938 1.92857 18.938H16.0714C17.1362 18.938 18 18.1822 18 17.2505V7.68805Z" fill="#A3A3A3"/>
</g>
<defs>
<clipPath id="clip0_38_37">
<rect width="18" height="18" fill="white" transform="translate(0 0.938049)"/>
</clipPath>
</defs>
</svg>
