<svg width="19" height="8" viewBox="0 0 19 8" fill="none" xmlns="http://www.w3.org/2000/svg">
<path id="Vector 3" d="M0.5 3.5C0.223858 3.5 0 3.72386 0 4C0 4.27614 0.223858 4.5 0.5 4.5V3.5ZM18.3536 4.35355C18.5488 4.15829 18.5488 3.84171 18.3536 3.64645L15.1716 0.464466C14.9763 0.269204 14.6597 0.269204 14.4645 0.464466C14.2692 0.659728 14.2692 0.976311 14.4645 1.17157L17.2929 4L14.4645 6.82843C14.2692 7.02369 14.2692 7.34027 14.4645 7.53553C14.6597 7.7308 14.9763 7.7308 15.1716 7.53553L18.3536 4.35355ZM0.5 4.5H18V3.5H0.5V4.5Z" fill="white"/>
</svg>
