<svg width="14" height="15" viewBox="0 0 14 15" fill="none" xmlns="http://www.w3.org/2000/svg">
<path d="M0 13.5938C0 14.3701 0.671875 15 1.5 15H12.5C13.3281 15 14 14.3701 14 13.5938V5.625H0V13.5938ZM10 7.85156C10 7.6582 10.1688 7.5 10.375 7.5H11.625C11.8312 7.5 12 7.6582 12 7.85156V9.02344C12 9.2168 11.8312 9.375 11.625 9.375H10.375C10.1688 9.375 10 9.2168 10 9.02344V7.85156ZM10 11.6016C10 11.4082 10.1688 11.25 10.375 11.25H11.625C11.8312 11.25 12 11.4082 12 11.6016V12.7734C12 12.9668 11.8312 13.125 11.625 13.125H10.375C10.1688 13.125 10 12.9668 10 12.7734V11.6016ZM6 7.85156C6 7.6582 6.16875 7.5 6.375 7.5H7.625C7.83125 7.5 8 7.6582 8 7.85156V9.02344C8 9.2168 7.83125 9.375 7.625 9.375H6.375C6.16875 9.375 6 9.2168 6 9.02344V7.85156ZM6 11.6016C6 11.4082 6.16875 11.25 6.375 11.25H7.625C7.83125 11.25 8 11.4082 8 11.6016V12.7734C8 12.9668 7.83125 13.125 7.625 13.125H6.375C6.16875 13.125 6 12.9668 6 12.7734V11.6016ZM2 7.85156C2 7.6582 2.16875 7.5 2.375 7.5H3.625C3.83125 7.5 4 7.6582 4 7.85156V9.02344C4 9.2168 3.83125 9.375 3.625 9.375H2.375C2.16875 9.375 2 9.2168 2 9.02344V7.85156ZM2 11.6016C2 11.4082 2.16875 11.25 2.375 11.25H3.625C3.83125 11.25 4 11.4082 4 11.6016V12.7734C4 12.9668 3.83125 13.125 3.625 13.125H2.375C2.16875 13.125 2 12.9668 2 12.7734V11.6016ZM12.5 1.875H11V0.46875C11 0.210937 10.775 0 10.5 0H9.5C9.225 0 9 0.210937 9 0.46875V1.875H5V0.46875C5 0.210937 4.775 0 4.5 0H3.5C3.225 0 3 0.210937 3 0.46875V1.875H1.5C0.671875 1.875 0 2.50488 0 3.28125V4.6875H14V3.28125C14 2.50488 13.3281 1.875 12.5 1.875Z" fill="#7F7EFF"/>
</svg>
