<svg width="15" height="25" viewBox="0 0 15 25" fill="none" xmlns="http://www.w3.org/2000/svg">
<path id="Vector" d="M5.46875 15.4756V23.1265L6.54395 24.7388C6.77588 25.0864 7.28711 25.0864 7.51904 24.7388L8.59375 23.1265V15.4756C8.08643 15.5693 7.56543 15.625 7.03125 15.625C6.49707 15.625 5.97607 15.5693 5.46875 15.4756ZM7.03125 0C3.14795 0 0 3.14795 0 7.03125C0 10.9146 3.14795 14.0625 7.03125 14.0625C10.9146 14.0625 14.0625 10.9146 14.0625 7.03125C14.0625 3.14795 10.9146 0 7.03125 0ZM7.03125 3.71094C5.2002 3.71094 3.71094 5.2002 3.71094 7.03125C3.71094 7.35449 3.44824 7.61719 3.125 7.61719C2.80176 7.61719 2.53906 7.35449 2.53906 7.03125C2.53906 4.5542 4.55469 2.53906 7.03125 2.53906C7.35449 2.53906 7.61719 2.80176 7.61719 3.125C7.61719 3.44824 7.35449 3.71094 7.03125 3.71094Z" fill="#7F7EFF"/>
</svg>
