<svg width="261" height="14" viewBox="0 0 261 14" fill="none" xmlns="http://www.w3.org/2000/svg">
<path d="M7.24829 6.5H253.116" stroke="white" stroke-opacity="0.37" stroke-linecap="round"/>
<path d="M7.88371 7C7.88371 8.57721 6.46197 10 4.52242 10C2.58287 10 1.16113 8.57721 1.16113 7C1.16113 5.42279 2.58287 4 4.52242 4C6.46197 4 7.88371 5.42279 7.88371 7Z" stroke="#7F7EFF" stroke-width="2"/>
<path d="M259.748 7C259.748 8.57721 258.327 10 256.387 10C254.448 10 253.026 8.57721 253.026 7C253.026 5.42279 254.448 4 256.387 4C258.327 4 259.748 5.42279 259.748 7Z" stroke="#7F7EFF" stroke-width="2"/>
<g clip-path="url(#clip0_31_587)">
<path d="M137.998 5.25C139.487 5.25 142.077 6.04297 142.077 7C142.077 7.98438 139.487 8.75 137.998 8.75H132.922L128.546 13.5598C128.298 13.8332 127.836 14 127.336 14H124.889C124.427 14 124.092 13.7211 124.218 13.4422L126.352 8.75H121.876L119.995 10.325C119.865 10.4344 119.656 10.5 119.438 10.5H117.61C117.27 10.5 117 10.3277 117 10.1172C117 10.0816 117.009 10.0461 117.022 10.0105L118.393 7L117.022 3.98945C117.004 3.95391 117 3.91836 117 3.88281C117 3.66953 117.274 3.5 117.61 3.5H119.438C119.656 3.5 119.865 3.56562 119.995 3.675L121.876 5.25H126.356L124.223 0.557813C124.092 0.278906 124.427 0 124.889 0H127.336C127.836 0 128.298 0.169531 128.546 0.440234L132.922 5.25H137.998Z" fill="#7F7EFF"/>
</g>
<defs>
<clipPath id="clip0_31_587">
<rect width="25.0774" height="14" fill="white" transform="translate(117)"/>
</clipPath>
</defs>
</svg>
