<svg width="261" height="17" viewBox="0 0 261 17" fill="none" xmlns="http://www.w3.org/2000/svg">
<path d="M7.24829 9.5H253.116" stroke="white" stroke-opacity="0.37" stroke-linecap="round"/>
<path d="M7.88371 10C7.88371 11.5772 6.46197 13 4.52242 13C2.58287 13 1.16113 11.5772 1.16113 10C1.16113 8.42279 2.58287 7 4.52242 7C6.46197 7 7.88371 8.42279 7.88371 10Z" stroke="#7F7EFF" stroke-width="2"/>
<path d="M259.748 10C259.748 11.5772 258.327 13 256.387 13C254.448 13 253.026 11.5772 253.026 10C253.026 8.42279 254.448 7 256.387 7C258.327 7 259.748 8.42279 259.748 10Z" stroke="#7F7EFF" stroke-width="2"/>
<path d="M126.429 0C124.536 0 123 1.42773 123 3.1875V11.6875C123 13.2812 124.257 14.5994 125.896 14.8385L124.254 16.3658C124.004 16.5982 124.182 17 124.536 17H125.954C126.257 17 126.546 16.8871 126.761 16.6879L128.714 14.875H133.286L135.236 16.6879C135.45 16.8871 135.739 17 136.043 17H137.464C137.821 17 138 16.5982 137.746 16.3658L136.104 14.8385C137.746 14.6027 139 13.2812 139 11.6875V3.1875C139 1.42773 137.464 0 135.571 0H126.429ZM125.286 3.1875C125.286 2.5998 125.796 2.125 126.429 2.125H135.571C136.204 2.125 136.714 2.5998 136.714 3.1875V6.375C136.714 6.9627 136.204 7.4375 135.571 7.4375H126.429C125.796 7.4375 125.286 6.9627 125.286 6.375V3.1875ZM131 9.5625C131.455 9.5625 131.891 9.73041 132.212 10.0293C132.534 10.3282 132.714 10.7336 132.714 11.1562C132.714 11.5789 132.534 11.9843 132.212 12.2832C131.891 12.5821 131.455 12.75 131 12.75C130.545 12.75 130.109 12.5821 129.788 12.2832C129.466 11.9843 129.286 11.5789 129.286 11.1562C129.286 10.7336 129.466 10.3282 129.788 10.0293C130.109 9.73041 130.545 9.5625 131 9.5625Z" fill="#7F7EFF"/>
</svg>
